{"title":"Reign.s03e08.Our.Undoing.480p.WEB-DL.mp4","uid":13191818,"size":650085677,"categoryP":"video","categoryS":"tv_shows","magnet":"?xt=urn:btih:4e7390e4c0a9f88fd535b69528b171ac62ad1d73&amp;dn=Reign.s03e08.Our.Undoing.480p.WEB-DL.mp4&amp;tr=udp%3A%2F%2Ftracker.leechers-paradise.org%3A6969&amp;tr=udp%3A%2F%2Fzer0day.ch%3A1337&amp;tr=udp%3A%2F%2Fopen.demonii.com%3A1337&amp;tr=udp%3A%2F%2Ftracker.coppersurfer.tk%3A6969&amp;tr=udp%3A%2F%2Fexodus.desync.com%3A6969","seeders":0,"leechers":1,"uploader":null,"files":1,"time":1452446678,"description":"ormat : MPEG-4\r\nFormat profile : Base Media / Version 2\r\nCodec ID : mp42\r\nFile size : 620 MiB\r\nDuration : 42mn 29s\r\nOverall bit rate mode : Variable\r\nOverall bit rate : 2 040 Kbps\r\nSeason : 3\r\nMovie name : Reign\r\nAlbum/Sorted by : Reign, Season 3\r\nPart : 8\r\nPart/Position : 1\r\nPart/Total : 1\r\nTrack name/Position : 8\r\nTrack name/Total : 8\r\nPerformer : Reign\r\nPerformer/Sorted by : Reign\r\nContentType : TV Show\r\nDescription : As Mary (Adelaide Kane) and Catherine (Megan Follows) deal with the aftermath of Prince Don Carlos\r\nRecorded date : UTC 2016-01-08 08:00:00\r\nEncoded date : UTC 2016-01-09 08:53:57\r\nTagged date : UTC 2016-01-09 08:56:47\r\nCover : Yes\r\nRating : None\r\nPart_ID : 308\r\nTitle/Sort : Our Undoing\r\nLongDescription : As Mary (Adelaide Kane) and Catherine (Megan Follows) deal with the aftermath of Prince Don Carlos' (guest star Mark Ghanime) accident, Mary realizes that she will have to marry for the good of her country and not follow her heart. When Catherine is accused of poisoning Francis (Toby Regbo), Lola (Anna Popplewell) is shocked when Mary thinks Narcisse (Craig Parker) framed Catherine in order to become Regent of France. Torrance Coombs, Ben Geurens, Celina Sinden, Rachel Skarsten, Charlie Carrick, Rose Williams and Jonathan Keltz also star.\r\n\r\nVideo\r\nID : 2\r\nFormat : AVC\r\nFormat/Info : Advanced Video Codec\r\nFormat profile :   \r\nFormat settings, CABAC : No\r\nFormat settings, ReFrames : 1 frame\r\nCodec ID : avc1\r\nCodec ID/Info : Advanced Video Coding\r\nDuration : 42mn 29s\r\nBit rate : 1 527 Kbps\r\nWidth : 640 pixels\r\nHeight : 480 pixels\r\nDisplay aspect ratio : 16:9\r\nFrame rate mode : Constant\r\nFrame rate : 23.976 fps\r\nColor space : YUV\r\nChroma subsampling : 4:2:0\r\nBit depth : 8 bits\r\nScan type : Progressive\r\nBits/(Pixel*Frame) : 0.207\r\nStream size : 464 MiB (75%)\r\nLanguage : English\r\nEncoded date : UTC 2016-01-09 08:55:40\r\nTagged date : UTC 2016-01-09 08:56:03\r\nColor primaries : BT.601 NTSC\r\nTransfer characteristics : BT.709\r\nMatrix coefficients : BT.601\r\n\r\nAudio #1\r\nID : 1\r\nFormat : AAC\r\nFormat/Info : Advanced Audio Codec\r\nFormat profile : LC\r\nCodec ID : 40\r\nDuration : 42mn 29s\r\nBit rate mode : Variable\r\nBit rate : 125 Kbps\r\nMaximum bit rate : 213 Kbps\r\nChannel(s) : 2 channels\r\nChannel positions : Front: L R\r\nSampling rate : 44.1 KHz\r\nCompression mode : Lossy\r\nStream size : 38.0 MiB (6%)\r\nLanguage : English\r\nEncoded date : UTC 2016-01-09 08:53:59\r\nTagged date : UTC 2016-01-09 08:55:40\r\n\r\nAudio #2\r\nID : 4\r\nFormat : AC-3\r\nFormat/Info : Audio Coding 3\r\nMode extension : CM (complete main)\r\nFormat settings, Endianness : Big\r\nCodec ID : ac-3\r\nDuration : 42mn 29s\r\nBit rate mode : Constant\r\nBit rate : 384 Kbps\r\nChannel(s) : 6 channels\r\nChannel positions : Front: L C R, Side: L R, LFE\r\nSampling rate : 48.0 KHz\r\nBit depth : 16 bits\r\nCompression mode : Lossy\r\nStream size : 117 MiB (19%)\r\nLanguage : English\r\nEncoded date : UTC 2016-01-09 08:56:04\r\nTagged date : UTC 2016-01-09 08:56:47\r\n\r\nText\r\nID : 3-CC1\r\nFormat : EIA-608\r\nMuxing mode : Final Cut\r\nCodec ID : c608\r\nDuration : 41mn 58s\r\nBit rate mode : Constant\r\nStream size : 0.00 Byte (0%)\r\nLanguage : English\r\nEncoded date : UTC 2016-01-09 08:56:03\r\nTagged date : UTC 2016-01-09 08:56:04","torrent":{"xt":"urn:btih:4e7390e4c0a9f88fd535b69528b171ac62ad1d73","amp;dn":"Reign.s03e08.Our.Undoing.480p.WEB-DL.mp4","amp;tr":["udp%3A%2F%2Ftracker.leechers-paradise.org%3A6969","udp%3A%2F%2Fzer0day.ch%3A1337","udp%3A%2F%2Fopen.demonii.com%3A1337","udp%3A%2F%2Ftracker.coppersurfer.tk%3A6969","udp%3A%2F%2Fexodus.desync.com%3A6969"],"infoHash":"4e7390e4c0a9f88fd535b69528b171ac62ad1d73","infoHashBuffer":{"type":"Buffer","data":[78,115,144,228,192,169,248,143,213,53,182,149,40,177,113,172,98,173,29,115]},"announce":[],"urlList":[]}}